PathFileType	4	(X/Y/Z)	D:\TRACE\v60_Jaco2_6-2-23\BothDRS_Motion3_10-v60.trc
DataRate	CameraRate	NumFrames	NumMarkers	Units	OrigDataRate	OrigDataStartFrame	OrigNumFrames
100.00	100.00	      28	9	mm	100.00	6126	      7000
Frame#	Time	front left toe			Front right toe			aft left toe			aft right toe			Arm			FL body			FR body			AL Body			AR Body			
		X1	Y1	Z1	X2	Y2	Z2	X3	Y3	Z3	X4	Y4	Z4	X5	Y5	Z5	X6	Y6	Z6	X7	Y7	Z7	X8	Y8	Z8	X9	Y9	Z9	

6126	61.250	-163.16089	16.19314	-145.78935	241.24429	118.60194	-166.81110	-141.86765	117.66767	454.31760	213.71054	6.68658	474.28983	132.47932	1120.57446	-488.46228	-35.69691	523.87738	-331.12769	122.43382	513.18695	-329.97653	-31.77392	552.61041	613.52118	120.06208	533.17773	613.42578	
6127	61.260	-162.93369	16.09746	-145.87305	243.35860	110.88612	-170.46193	-139.08582	110.04417	451.73666	214.10788	6.95544	474.13315	132.23845	1119.10828	-490.61337	-34.84639	523.21106	-332.02188	123.55346	512.47992	-331.09140	-29.89588	553.21442	612.27075	122.09959	533.47113	611.96515	
6128	61.270	-162.67500	15.88464	-145.88503	247.37521	102.97285	-173.96231	-135.83327	101.32436	449.10583	214.35844	7.06765	473.92322	132.17018	1117.71643	-492.60001	-34.43716	522.67230	-333.10913	123.40700	512.07953	-332.47165	-28.60946	553.54016	611.07666	123.98236	533.86719	610.74036	
6129	61.280	-162.41214	15.67819	-145.92694	250.22580	94.29962	-177.39395	-132.38503	91.50297	446.83972	214.69873	7.09067	473.65945	131.90048	1116.26880	-494.75714	-33.82741	522.21143	-334.30167	124.20943	511.44989	-333.31885	-26.78971	553.78601	609.79388	125.64247	534.08740	609.40155	
6130	61.290	-162.18550	15.65226	-146.00494	253.08345	85.42612	-180.59938	-127.82337	81.67156	443.58109	214.89159	7.10991	473.58020	131.71292	1115.18677	-496.45096	-33.05449	521.91187	-335.75140	125.46736	511.02606	-335.33362	-24.65720	554.01666	608.58661	127.65829	534.31622	608.02295	
6131	61.300	-161.99849	15.65684	-146.20459	253.85558	75.90328	-184.16505	-123.69099	72.38168	440.54202	214.93875	7.09095	473.43674	131.64284	1113.97852	-498.58710	-32.13766	521.25848	-336.62878	125.78616	510.61218	-336.73941	-22.79674	554.10333	607.14069	128.63086	534.42322	606.43048	
6132	61.310	-161.74925	15.71646	-146.34132	255.89246	66.84897	-187.06886	-120.17060	63.80924	438.29901	215.36871	7.14661	473.11954	131.43423	1113.12061	-500.65619	-31.24152	520.90234	-338.21976	126.62451	510.33606	-338.33102	-20.69041	554.15698	605.85931	131.69371	534.70880	604.81116	
6133	61.320	-161.46713	15.65228	-146.44290	259.85251	59.23894	-188.73831	-116.78970	54.83331	436.01987	215.83566	7.19972	472.94476	131.19583	1112.38782	-502.63840	-30.28138	520.58191	-339.96140	127.64407	510.00092	-339.97360	-18.58072	554.22144	604.31219	133.53052	534.74927	603.28717	
6134	61.330	-161.17606	15.51570	-146.48360	262.32175	51.40317	-190.74956	-113.32131	45.93497	434.41006	216.28127	7.26968	472.92700	130.85213	1111.88379	-504.66330	-29.13352	519.82434	-341.18781	129.39827	509.18765	-341.77997	-16.54563	554.16632	602.85223	135.46800	534.94354	601.55304	
6135	61.340	-161.00893	15.52628	-146.48831	264.40280	44.25561	-192.61104	-110.65410	38.07443	433.04041	216.52797	7.27151	472.91742	130.69051	1111.56323	-506.62982	-28.16947	519.41992	-342.84180	130.49869	509.17645	-343.67511	-14.45042	553.86627	601.12274	137.82945	534.87561	599.68024	
6136	61.350	-160.85960	15.70531	-146.56209	265.81128	37.44660	-194.77670	-107.42637	30.97021	431.43964	216.96831	7.42367	472.72504	130.22572	1111.19275	-508.61758	-26.84641	518.92102	-344.50745	131.71817	509.16733	-345.76785	-12.23602	553.71204	599.40717	140.34883	534.60712	597.65479	
6137	61.360	-160.44133	15.97226	-146.58861	269.63797	31.83933	-196.78987	-104.16959	24.56856	429.53235	217.45627	7.56894	472.69495	129.81659	1110.88806	-510.71451	-25.68992	518.66888	-346.39572	132.93527	508.82776	-347.69052	-9.89188	553.56989	597.50336	142.72063	534.30481	595.49780	
6138	61.370	-160.05809	16.06419	-146.66287	271.86969	25.38811	-199.88055	-101.52229	18.02847	427.32190	217.59747	7.50219	472.35614	129.62892	1110.70825	-512.93640	-24.41134	518.42133	-348.35965	134.10643	508.75925	-350.03061	-7.31603	553.31317	595.48779	145.60271	534.30701	593.45129	
6139	61.380	-159.75769	16.13770	-146.53741	271.61185	21.22081	-203.29128	-99.79270	12.40094	424.01895	217.86324	7.38214	472.24200	129.64485	1110.47034	-515.27295	-23.10969	518.35089	-350.59583	134.71411	508.78717	-351.99258	-4.74192	552.99194	593.31018	147.49860	534.26355	591.16321	
6140	61.390	-159.10915	16.06208	-146.80847	274.33987	19.06080	-203.98744	-99.41390	10.74320	423.71899	218.00604	7.41016	472.00238	129.57695	1110.23779	-517.67133	-21.90397	517.95966	-352.78223	136.44673	508.60266	-354.69351	-2.36594	553.05066	591.05389	149.73154	534.54669	588.59479	
6141	61.400	-158.91838	16.24303	-147.08894	274.72922	19.54512	-204.55991	-100.63783	12.22573	423.27048	217.96378	7.53136	471.51294	129.56995	1110.34546	-520.25232	-20.98089	517.67749	-354.89377	137.51373	508.25156	-356.98575	0.17523	554.78400	588.72681	152.14029	536.21985	586.25024	
6142	61.410	-157.93524	17.33571	-147.80791	275.56665	17.40874	-203.90332	-98.59692	12.89942	423.83829	219.34247	9.54522	470.69080	130.03815	1110.49219	-523.74854	-20.01702	517.52234	-356.72946	138.63350	508.40067	-358.96213	2.46415	556.91638	586.68207	154.59323	538.16980	584.04346	
6143	61.420	-153.47261	22.29857	-147.28941	275.00867	16.54791	-206.05699	-98.18222	13.72441	422.64243	217.85986	14.05366	472.42291	130.56915	1110.56360	-527.63422	-19.10120	517.89240	-358.39514	138.72443	508.61819	-360.84814	4.87872	558.46405	584.98486	156.98795	539.76282	581.98718	
6144	61.430	-147.80392	25.74798	-143.12468	276.78049	16.59249	-205.76210	-97.33687	14.08605	422.60684	216.49083	18.64674	475.83768	130.51651	1109.47253	-531.49402	-18.45737	518.29150	-360.00174	140.15048	509.13275	-362.82568	7.10582	559.83301	583.27777	159.22308	541.05243	580.21710	
6145	61.440	-143.69325	30.89411	-139.96553	277.21304	16.14972	-206.00542	-96.82302	14.11920	422.55063	214.46440	28.31410	477.17816	130.64301	1107.51355	-534.76849	-17.39519	518.21777	-360.95282	140.92645	508.89798	-363.82822	8.69406	561.03217	582.06433	160.90286	542.09619	578.71924	
6146	61.450	-143.05956	43.13223	-142.26976	277.49567	15.91137	-205.90378	-96.19143	14.07667	422.32843	214.69530	38.52256	476.65887	130.57541	1105.53174	-537.16766	-16.73050	517.78394	-361.86557	141.92671	508.71954	-365.04813	9.84837	562.13599	581.19696	162.21992	543.52789	577.53595	
6147	61.460	-143.53676	53.95673	-143.51614	277.52371	15.76537	-205.83257	-96.56409	14.73987	422.53345	216.76324	50.98157	473.05078	130.96280	1104.45642	-539.11615	-15.99879	517.39203	-362.75937	142.49460	508.24521	-365.59756	11.06902	563.36023	580.32996	163.22621	544.57037	576.89801	
6148	61.470	-144.35959	65.87228	-146.53632	277.77344	15.58501	-205.99467	-95.96091	14.28375	422.34753	220.83932	63.47502	470.20325	131.29698	1103.85657	-540.42285	-15.43914	516.82599	-363.32147	143.38974	507.42294	-366.27835	11.45812	564.25897	579.47388	164.12538	545.49957	576.34924	
6149	61.480	-144.78966	79.01411	-149.64577	276.31223	15.17986	-206.15752	-95.99834	14.27649	422.35684	226.04517	76.73856	466.58902	132.04047	1103.63672	-540.94196	-15.02510	516.34247	-363.95071	143.53860	506.99496	-366.85098	11.82740	564.79498	578.93994	164.22296	545.96228	575.60016	
6150	61.490	-143.63220	90.44066	-152.06609	276.24948	15.09533	-206.25378	-95.99913	14.14526	422.27280	230.02084	88.86671	462.75113	132.73776	1103.78564	-541.17371	-14.66938	515.70013	-364.29889	143.76514	506.39999	-367.18903	11.69384	565.06708	578.59058	164.68315	546.38184	575.39874	
6151	61.500	-143.28691	102.54085	-155.59178	276.39273	15.17749	-206.05624	-96.00548	13.99623	422.31747	233.46358	100.23711	459.06558	134.00415	1103.79968	-540.96167	-14.52628	515.35706	-364.55347	143.90204	505.95761	-367.33981	11.52067	565.27643	578.29254	164.80598	546.47125	575.16724	
6152	61.510	-142.52112	112.65762	-159.37056	276.37827	15.15195	-206.01320	-95.95954	13.98836	422.30063	235.83664	111.06158	455.23904	134.95038	1104.15283	-540.95117	-14.41628	515.14417	-364.64725	143.96587	505.81793	-367.44531	11.36549	565.28247	578.09277	164.69879	546.57184	575.13409	
6153	61.520	-142.08800	122.83339	-162.83052	276.42056	15.14809	-205.99176	-95.89737	13.97644	422.29242	237.32039	121.03947	451.71930	135.75784	1104.28320	-540.80353	-14.37430	515.17670	-364.79141	143.98338	505.84509	-367.48547	11.18953	565.12592	577.98755	164.27055	546.44153	575.25940	
